<?xml version="1.0" encoding="UTF-8" standalone="no"?>
<!-- Created with Inkscape (http://www.inkscape.org/) -->

<svg
   version="1.1"
   id="svg2"
   width="832.45337"
   height="696.4668"
   viewBox="0 0 832.45338 696.4668"
   xmlns="http://www.w3.org/2000/svg"
   xmlns:svg="http://www.w3.org/2000/svg"
   fill="currentColor"
   >
  <defs
     id="defs6" />
  <g
     id="g10"
     transform="matrix(1.3333333,0,0,-1.3333333,-2866.2666,1548.227)">
    <g
       id="g12"
       transform="scale(0.1)">
      <path
         d="m 26930.8,7543.3 c -42.7,168.8 -64,188.8 -216,203.4 44.7,18.3 112.8,28.2 152,66.81 40.9,40.49 54.2,109.29 69.1,142.79 13,-31.6 23.1,-98.8 61.4,-138.1 39.3,-39.5 106.4,-51.9 141.6,-67.4 -32,-13.3 -98.5,-22.5 -136.8,-60.2 -39.6,-39.3 -52.3,-105.19 -71.3,-147.3 z m -483,1957.7 c -86.5,338.3 -128.3,379.1 -433.6,408.3 89.6,36.4 226.1,56 305,134 82,81.4 108.6,218.8 138.4,286 26.3,-63.4 46.3,-198 123.5,-276.5 78.6,-79.89 212.9,-104.6 284.5,-136.19 -65.6,-26.31 -198.3,-45 -274.6,-120.11 -80.2,-78.2 -105.2,-211.5 -143.2,-295.5 z m -529.9,-893.8 c -27.5,-27.2 -36.1,-73.79 -49.7,-103.2 -30.1,118.1 -44.7,132.7 -151.4,142.8 31.3,12.7 78.9,19.3 106.1,46.2 29.1,28.91 38.3,76.7 48.8,100.51 9.2,-22.5 15.8,-69.71 42.7,-97.01 27.6,-27.8 74.8,-36.4 99.8,-47.5 -23.1,-8.8 -69,-15.49 -96.3,-41.8 z m -635.7,2170.9 c -27.5,-27.3 -37,-73.5 -50,-103 -29.8,118.2 -44.7,132.1 -151.1,142.6 31.1,12.9 78.9,19.6 106.1,46.5 28.8,28.5 38,76.4 48.5,100.1 9.2,-22.2 16.1,-69.4 43.1,-96.6 27.2,-27.9 74.4,-36.4 99.4,-47.5 -22.8,-9.2 -69.4,-15.8 -96,-42.1 z m -1530.4,-170.7 c -45.3,-44.4 -59.9,-120.4 -81.7,-168.5 -49.1,193.2 -72.8,216 -246.7,232.8 51.3,20.9 128.6,31.9 173.9,76.6 46.2,45.9 61.7,124.2 78.8,162.8 14.9,-36.1 26.3,-113.1 70,-157.7 44.7,-45.3 121.3,-59.3 162.2,-77.6 -37.4,-14.6 -113.1,-25.4 -156.5,-68.4 z m -33.6,-1147.9 c -27.5,-27.2 -36.4,-74.09 -49.7,-103.5 -30.1,118.11 -44.6,132.7 -151.4,143.11 31.4,12.39 78.9,19 106.1,46.59 28.8,28.5 38.3,76.3 48.8,99.71 9.2,-22.11 15.8,-69 42.8,-96.91 27.5,-27.5 74.4,-35.8 99.7,-47.2 -23.1,-9.1 -69.3,-15.2 -96.3,-41.8 z m -889.6,-2152.1 c -65.9,-65 -87.1,-175.79 -118.8,-245.49 -71.3,280.89 -106.4,314.19 -359.8,339.19 74.4,30.1 187.8,46.3 253,111.2 68.5,67.11 90,181.5 115.3,237.2 21.6,-52.2 38.4,-164.4 102.3,-229.6 65.3,-66.49 177.1,-86.8 236.3,-113.1 -54.1,-21.5 -164.7,-37 -228.3,-99.4 z m -690.8,1984.01 c 44.6,18.29 112.7,27.79 152,66.79 40.8,40.5 54.2,108.9 69,142.8 13,-31.7 22.8,-99.1 61.5,-138.09 39.3,-39.91 106.1,-52.21 141.9,-68.11 -32.6,-12.6 -98.8,-22.1 -137.2,-59.5 -39.6,-39 -52.2,-105.5 -71.5,-147.6 -42.5,169.1 -63.7,189.1 -215.7,203.71 z m 3478,2157.19 c -46.9,15.8 -94.4,30.7 -142.6,44.3 -48.7,14 -98.8,27.3 -149.5,38.7 -25,5.7 -50.6,11.4 -76,16.8 -0.9,0 -1.6,0.3 -2.5,0.6 -100.4,19.9 -203,35.8 -307.2,46.5 -105.2,10.5 -211.6,16.2 -319.3,16.2 -107.1,0 -212.8,-5.4 -317.4,-15.8 -0.6,0 -1.2,0 -1.9,-0.4 -77.6,-7.9 -154.5,-18.6 -230.5,-31.9 -102,-18.4 -202.4,-41.9 -300.6,-69.7 C 22457.7,11123.9 21497,9919.11 21497,8490 c 0,-777.9 284.8,-1489.5 756.1,-2035.89 21.8,4.8 44,6.99 64.9,4.09 133.6,-19.9 230.9,18.1 319.9,125.4 86.4,104.91 165.9,220.81 289.5,293.01 71.2,41.49 133.3,58.29 207.1,5.39 59.9,-43.09 121,-86.8 202.7,-87.7 26,-0.7 52.6,-25.39 77.6,-41.2 111.5,-70.6 221.4,-144.1 333.8,-213.8 -65.8,149.81 -68.1,309.11 -6,471 60.2,155.5 130.8,306.2 194.2,460.5 21.8,53.2 51.6,110.5 49.1,165 -11.1,259.1 35.4,500.81 202.4,723.11 -71,17.1 -131.8,25.29 -187.2,46.59 -46.6,18.01 -100.4,41.8 -128.9,79.8 -87.1,116.8 -171.4,238.5 -127,400.3 11.4,42.8 29.4,59.6 74.1,65.6 34.2,4.41 77.9,25 95.3,51.91 84.3,128.3 202.7,197.69 347.1,234.39 28.5,7 59,34.5 74.2,60.5 51.3,88.41 95.3,180.5 151,287.3 27.6,-63.1 47.5,-107.39 70.7,-159.3 62.7,69 122.9,133.9 201.4,219.41 27.6,-107.3 57.7,-192.21 70.6,-279 25.4,-175.51 50.1,-351.91 59.3,-528.91 7.9,-153.3 -12.1,-307.2 -7.3,-461.2 2.8,-84.89 21.2,-172.6 50.3,-252.1 42.5,-114.6 70,-228.4 61.2,-349.7 -10.2,-133.59 23.1,-254.6 88,-372.8 95.4,-174.5 170.4,-358.5 199.9,-558 15.8,-110.19 -6.4,-227.09 -56.1,-333.5 78.2,54.8 128.3,129.21 145.7,227.1 11.4,66.21 10.8,133 -2.8,198.5 -22.2,106.8 -47.6,213.2 -73.8,319 -26,106.11 -52.9,211.9 -56.7,322.11 -3.2,87.69 8.2,173.59 55.1,250.19 91.8,149.81 230.9,218.2 403.2,213.81 160.2,-4.41 284.7,-77.31 366.4,-217.61 18.4,-31 31.7,-64 29.8,-101.3 -3.5,-62.8 -53.5,-90.9 -108.6,-61.5 -30.4,16.5 -49.1,43.7 -69.1,70.6 -64.3,86.5 -150.4,129.6 -258.4,111.2 -108,-18.39 -186,-79.2 -222.1,-185.6 -18.3,-53.19 -20.2,-108.29 -17.7,-163.7 4.1,-104.59 27.2,-206.2 51,-307.59 24.4,-104.5 50,-208.71 71.9,-313.91 16.5,-80.7 18.7,-162.09 -7,-241.9 -3.5,-11.09 -7.3,-21.9 -11.7,-32.69 22.8,21.89 41.8,47.89 57.3,77 120.7,225.79 328.8,139.09 435.8,5.99 8.3,-10.7 13.7,-23.4 21.3,-35.1 64,-95.39 84.5,-104.6 188.7,-59.9 67.8,29.1 130.8,20.9 189.8,-12.7 154.2,-87.1 321.4,-128.9 490.6,-176.7 7.6,-2.2 15.2,-4.7 22.8,-7.3 505.8,554.6 814,1292.3 814,2101.8 0,1375.61 -889.7,2543 -2124.6,2958.6"
         id="path374" />
    </g>
  </g>
</svg>
